<?xml version="1.0" ?>
<!-- Uploaded to: SVG Repo, www.svgrepo.com, Generator: SVG Repo Mixer Tools -->
<svg width="800px" height="800px" viewBox="0 0 512 512" id="icons" xmlns="http://www.w3.org/2000/svg">
<defs>
<style>.cls-1{stroke-miterlimit:10;}.cls-1,.cls-2{fill:none;stroke:#808285;stroke-width:7px;}.cls-2{stroke-linecap:round;stroke-linejoin:round;}</style>
</defs>
<path class="cls-2" d="M230.73,107.54l-118.37,205.02c-11.55,20,2.89,45.01,25.99,45.01h236.74c23.1,0,37.53-25,25.99-45.01l-118.37-205.02c-11.55-20-40.42-20-51.97,0Z"/>
<path class="cls-2" d="M240.27,119.31l-112.59,195c-7.31,12.66,1.83,28.49,16.45,28.49h225.17c14.62,0,23.76-15.83,16.45-28.49l-112.59-195c-7.31-12.66-25.58-12.66-32.89,0Z"/>
<g>
<path class="cls-1" d="M279.4,270.9c-4.32-7.45-13.62-12.6-24.41-12.6s-20.09,5.15-24.41,12.6c-7.72,3.6-12.6,8.88-12.6,14.77,0,10.86,16.57,19.66,37.01,19.66s37.01-8.8,37.01-19.66c0-5.89-4.88-11.17-12.6-14.77Z"/>
<ellipse class="cls-1" cx="268.59" cy="231.22" rx="14.57" ry="11.18" transform="translate(-18.36 439.22) rotate(-76.66)"/>
<ellipse class="cls-1" cx="237.43" cy="231.22" rx="11.18" ry="14.57" transform="translate(-46.94 61.01) rotate(-13.34)"/>
<ellipse class="cls-1" cx="213.35" cy="255.12" rx="9.83" ry="12.81" transform="translate(-98.98 140.86) rotate(-30)"/>
<ellipse class="cls-1" cx="293.91" cy="251.81" rx="12.81" ry="9.83" transform="translate(-71.12 380.44) rotate(-60)"/>
</g>
</svg>